<svg width="32" height="32" viewBox="0 0 32 32" fill="none" xmlns="http://www.w3.org/2000/svg">
<path d="M11.578 31.9997C6.81548 31.9723 2.87598 22.2503 2.87598 17.2991C2.87598 9.21132 8.94316 7.4407 11.2814 7.4407C12.3352 7.4407 13.4604 7.85451 14.4528 8.2207C15.1468 8.47613 15.8645 8.73982 16.2637 8.73982C16.5027 8.73982 17.0657 8.51551 17.5629 8.3187C18.623 7.89663 19.9423 7.37207 21.4785 7.37207C21.4813 7.37207 21.485 7.37207 21.4877 7.37207C22.6348 7.37207 26.1129 7.62382 28.204 10.7641L28.6938 11.5001L27.9889 12.0321C26.9818 12.7919 25.1443 14.1781 25.1443 16.9238C25.1443 20.1757 27.2253 21.4263 28.225 22.0278C28.6664 22.2933 29.1232 22.5671 29.1232 23.1658C29.1232 23.5568 26.003 31.9512 21.4721 31.9512C20.3634 31.9512 19.5797 31.6179 18.8885 31.3241C18.189 31.0265 17.5857 30.7702 16.5887 30.7702C16.0833 30.7702 15.4442 31.0091 14.7677 31.2628C13.8431 31.6078 12.7966 31.9997 11.6092 31.9997H11.578Z" fill="black"/>
<path d="M21.9581 0C22.0761 4.25475 19.0333 7.2065 15.994 7.02138C15.4932 3.62594 19.0329 0 21.9581 0Z" fill="black"/>
</svg>
