<svg width="28" height="28" viewBox="0 0 28 28" fill="none" xmlns="http://www.w3.org/2000/svg">
<path d="M3.49967 23.3333H3.51335C4.15592 23.3333 4.68001 22.8092 4.68001 22.1667C4.68001 21.5241 4.15592 21 3.51335 21H3.49967C2.8571 21 2.33301 21.5241 2.33301 22.1667C2.33301 22.8092 2.8571 23.3333 3.49967 23.3333Z" fill="white"/>
<path d="M9.33301 22.1663C9.33301 18.9443 6.72168 16.333 3.49967 16.333C2.8571 16.333 2.33301 16.8571 2.33301 17.4997C2.33301 18.1423 2.8571 18.6663 3.49967 18.6663C5.43197 18.6709 6.99512 20.234 6.99968 22.1663C6.99968 22.8089 7.52376 23.333 8.16634 23.333C8.80892 23.333 9.33301 22.8089 9.33301 22.1663Z" fill="white"/>
<path d="M13.9997 22.1665C13.9997 16.3651 9.30111 11.6665 3.49967 11.6665C2.8571 11.6665 2.33301 12.1906 2.33301 12.8332C2.33301 13.4757 2.8571 13.9998 3.49967 13.9998C5.76009 13.9998 7.79264 14.9113 9.27376 16.3924C10.7549 17.8735 11.6663 19.9061 11.6663 22.1665C11.6663 22.8091 12.1904 23.3332 12.833 23.3332C13.4756 23.3332 13.9997 22.8091 13.9997 22.1665Z" fill="white"/>
<path d="M17.4999 23.3332H20.9999C23.5794 23.3332 25.6666 21.2459 25.6666 18.6665V9.33317C25.6666 6.75374 23.5794 4.6665 20.9999 4.6665H6.99995H6.99083C5.0312 4.68473 3.29031 5.92887 2.63406 7.77913C2.41987 8.38525 2.73888 9.05518 3.345 9.26937C3.95112 9.48356 4.62104 9.16455 4.83523 8.55843C5.16336 7.6333 6.0338 7.01351 7.01362 7.00439H7.00451H21.0045C22.2942 7.00895 23.3333 8.04801 23.3378 9.33773V18.6711C23.3333 19.9608 22.2942 20.9998 21.0045 21.0044H17.5045C16.8619 21.0044 16.3378 21.5285 16.3378 22.1711C16.3333 22.8091 16.8574 23.3332 17.4999 23.3332Z" fill="white"/>
</svg>
