<svg width="18" height="16" viewBox="0 0 18 16" fill="none" xmlns="http://www.w3.org/2000/svg">
<path fill-rule="evenodd" clip-rule="evenodd" d="M13.1162 0.699951C14.2337 0.699951 15.3087 1.14162 16.0995 1.93412C16.8912 2.72495 17.3337 3.79162 17.3337 4.90828V11.4916C17.3337 13.8166 15.442 15.7 13.1162 15.7H4.88366C2.55783 15.7 0.666992 13.8166 0.666992 11.4916V4.90828C0.666992 2.58328 2.54949 0.699951 4.88366 0.699951H13.1162ZM14.442 6.14995L14.5087 6.08329C14.7078 5.84162 14.7078 5.49162 14.4995 5.24995C14.3837 5.12579 14.2245 5.04995 14.0587 5.03329C13.8837 5.02412 13.717 5.08329 13.5912 5.19995L9.83366 8.19995C9.35033 8.60079 8.65783 8.60079 8.16699 8.19995L4.41699 5.19995C4.15783 5.00829 3.79949 5.03329 3.58366 5.25829C3.35866 5.48328 3.33366 5.84162 3.52449 6.09162L3.63366 6.19995L7.42533 9.15829C7.89199 9.52495 8.45783 9.72495 9.05033 9.72495C9.64116 9.72495 10.217 9.52495 10.6828 9.15829L14.442 6.14995Z" fill="#9E9E9E"/>
</svg>
