<svg width="16" height="18" viewBox="0 0 16 18" fill="none" xmlns="http://www.w3.org/2000/svg">
<path fill-rule="evenodd" clip-rule="evenodd" d="M12.6026 5.36325V6.64103C14.0379 7.08904 15.0837 8.38836 15.0837 9.94025V14.0543C15.0837 15.9756 13.4909 17.5332 11.5272 17.5332H4.47432C2.50979 17.5332 0.916992 15.9756 0.916992 14.0543V9.94025C0.916992 8.38836 1.96362 7.08904 3.39806 6.64103V5.36325C3.40653 2.8789 5.46421 0.866577 7.98763 0.866577C10.5449 0.866577 12.6026 2.8789 12.6026 5.36325ZM8.00456 2.31578C9.72353 2.31578 11.1207 3.68217 11.1207 5.36325V6.46133H4.87993V5.34669C4.8884 3.67389 6.28559 2.31578 8.00456 2.31578ZM8.74126 12.9124C8.74126 13.3181 8.41101 13.6411 7.99609 13.6411C7.58964 13.6411 7.25939 13.3181 7.25939 12.9124V11.0739C7.25939 10.6764 7.58964 10.3535 7.99609 10.3535C8.41101 10.3535 8.74126 10.6764 8.74126 11.0739V12.9124Z" fill="#9E9E9E"/>
</svg>
