<svg width="14" height="14" viewBox="0 0 14 14" fill="none" xmlns="http://www.w3.org/2000/svg">
<path fill-rule="evenodd" clip-rule="evenodd" d="M0.333008 7.00378C0.333008 3.32409 3.32529 0.333252 6.99967 0.333252C10.6741 0.333252 13.6663 3.32409 13.6663 7.00378C13.6663 10.6758 10.6741 13.6666 6.99967 13.6666C3.32529 13.6666 0.333008 10.6758 0.333008 7.00378ZM9.44498 7.67848C9.51576 7.60773 9.60585 7.49839 9.62516 7.47266C9.72812 7.33759 9.7796 7.17036 9.7796 7.00378C9.7796 6.81661 9.72168 6.64295 9.61229 6.50145C9.60332 6.49249 9.58577 6.47338 9.56289 6.44848C9.52009 6.40189 9.45864 6.33501 9.39993 6.27633C8.87226 5.71032 7.49517 4.78413 6.77445 4.50112C6.66505 4.45674 6.38835 4.35962 6.24034 4.35319C6.09877 4.35319 5.96364 4.38535 5.83494 4.44967C5.67406 4.53972 5.54536 4.68122 5.47458 4.84845C5.42953 4.96422 5.35875 5.31154 5.35875 5.31798C5.28796 5.69746 5.24935 6.31492 5.24935 6.9967C5.24935 7.64697 5.28796 8.23806 5.34588 8.62397C5.34747 8.62557 5.35301 8.65316 5.3616 8.69604C5.38775 8.8264 5.44221 9.09796 5.50032 9.20928C5.64189 9.47942 5.91859 9.64665 6.2146 9.64665H6.24034C6.43339 9.64021 6.8388 9.47298 6.8388 9.46655C7.52091 9.18355 8.86583 8.30238 9.40637 7.71708L9.44498 7.67848Z" fill="white"/>
</svg>
