<svg width="18" height="16" viewBox="0 0 18 16" fill="none" xmlns="http://www.w3.org/2000/svg">
<path d="M8.35874 4.0756V0.73475C8.35874 0.379521 8.64208 0.0834961 9.00041 0.0834961C9.32124 0.0834961 9.59306 0.332239 9.63613 0.647313L9.64208 0.73475V4.0756L13.6253 4.07585C15.6087 4.07585 17.2381 5.69998 17.3296 7.7255L17.3337 7.90524V12.1047C17.3337 14.1444 15.7609 15.8187 13.807 15.9127L13.6337 15.9168H4.36699C2.38366 15.9168 0.762067 14.3008 0.671024 12.2679L0.666992 12.0874L0.666992 7.89663C0.666992 5.85692 2.23192 4.17451 4.18532 4.08003L4.35866 4.07585H8.35866V9.41118L7.02533 8.03432C6.77533 7.77616 6.36699 7.77616 6.11699 8.03432C5.99199 8.1634 5.93366 8.33551 5.93366 8.50761C5.93366 8.63841 5.97099 8.77472 6.04993 8.8901L6.11699 8.9723L8.54199 11.4851C8.65866 11.6141 8.82533 11.683 9.00033 11.683C9.13921 11.683 9.2781 11.6352 9.38806 11.5445L9.45033 11.4851L11.8753 8.9723C12.1253 8.71414 12.1253 8.29248 11.8753 8.03432C11.6481 7.79963 11.2899 7.77829 11.0389 7.97031L10.967 8.03432L9.64199 9.41118V4.07585L8.35874 4.0756Z" fill="#E21221"/>
</svg>
