<svg width="56" height="56" viewBox="0 0 56 56" fill="none" xmlns="http://www.w3.org/2000/svg">
<rect width="56" height="56" rx="28" fill="url(#paint0_linear_1331_16456)"/>
<path d="M37.4354 18.582C36.9352 18.0686 36.1949 17.8773 35.5046 18.0787L19.408 22.7595C18.6797 22.9619 18.1635 23.5427 18.0244 24.2806C17.8824 25.0315 18.3786 25.9848 19.0268 26.3834L24.0599 29.4768C24.5761 29.7939 25.2424 29.7144 25.6696 29.2835L31.4329 23.4843C31.723 23.1823 32.2032 23.1823 32.4934 23.4843C32.7835 23.7762 32.7835 24.2493 32.4934 24.5513L26.72 30.3516C26.2918 30.7814 26.2118 31.4508 26.5269 31.9702L29.6022 37.0538C29.9623 37.6577 30.5826 38 31.2628 38C31.3429 38 31.4329 38 31.513 37.9899C32.2933 37.8893 32.9135 37.3558 33.1436 36.6008L37.9156 20.5248C38.1257 19.8403 37.9356 19.0954 37.4354 18.582Z" fill="white"/>
<defs>
<linearGradient id="paint0_linear_1331_16456" x1="56" y1="56" x2="-10.635" y2="36.6798" gradientUnits="userSpaceOnUse">
<stop stop-color="#E21221"/>
<stop offset="1" stop-color="#FF4451"/>
</linearGradient>
</defs>
</svg>
