<svg width="20" height="20" viewBox="0 0 20 20" fill="none" xmlns="http://www.w3.org/2000/svg">
<path opacity="0.4" d="M10.8139 2.59484L12.6693 6.3234C12.806 6.59354 13.0669 6.78114 13.3678 6.82282L17.5354 7.4298C17.7787 7.46398 17.9996 7.59238 18.1488 7.78831C18.2964 7.98175 18.3597 8.22687 18.3239 8.46783C18.2947 8.66793 18.2005 8.85302 18.0563 8.99476L15.0365 11.9221C14.8156 12.1264 14.7156 12.429 14.7689 12.725L15.5124 16.8404C15.5916 17.3373 15.2624 17.8059 14.7689 17.9001C14.5655 17.9326 14.3572 17.8985 14.1738 17.8051L10.4563 15.8683C10.1804 15.729 9.85454 15.729 9.57865 15.8683L5.86118 17.8051C5.40442 18.0477 4.83846 17.8826 4.58424 17.4324C4.49005 17.2531 4.45671 17.0489 4.48755 16.8496L5.23105 12.7333C5.28439 12.4382 5.18354 12.1339 4.96349 11.9296L1.94367 9.00393C1.58443 8.65709 1.57359 8.08597 1.9195 7.72662C1.927 7.71911 1.93534 7.71078 1.94367 7.70244C2.08704 7.55653 2.27541 7.46398 2.47879 7.4398L6.64635 6.832C6.94641 6.78947 7.2073 6.60355 7.34483 6.33174L9.13355 2.59484C9.29275 2.27468 9.62282 2.07541 9.98123 2.08375H10.0929C10.4038 2.12127 10.6747 2.31386 10.8139 2.59484Z" fill="#E21221"/>
<path d="M9.99367 15.7644C9.83225 15.7694 9.67499 15.8128 9.53355 15.8904L5.83426 17.8228C5.38162 18.0388 4.83996 17.8712 4.58619 17.4383C4.49217 17.2615 4.45805 17.0588 4.48967 16.8603L5.22853 12.7528C5.27845 12.4542 5.17861 12.1506 4.96144 11.9405L1.94027 9.01556C1.58166 8.66444 1.575 8.08813 1.92613 7.72867C1.93112 7.72367 1.93528 7.7195 1.94027 7.71533C2.08339 7.57354 2.2681 7.48013 2.46696 7.45094L6.63802 6.83711C6.94005 6.79874 7.20215 6.61025 7.33527 6.3367L9.14831 2.55276C9.32054 2.24751 9.65087 2.0657 10.0003 2.08488C9.99367 2.33258 9.99367 15.596 9.99367 15.7644Z" fill="#E21221"/>
</svg>
