<svg width="25" height="24" viewBox="0 0 25 24" fill="none" xmlns="http://www.w3.org/2000/svg">
<path fill-rule="evenodd" clip-rule="evenodd" d="M2.39941 12C2.39941 6.48 6.86941 2 12.3994 2C17.9194 2 22.3994 6.48 22.3994 12C22.3994 17.53 17.9194 22 12.3994 22C6.86941 22 2.39941 17.53 2.39941 12ZM14.6294 13.83L16.2494 8.71C16.3594 8.36 16.0394 8.03 15.6894 8.14L10.5694 9.74C10.3594 9.81 10.1894 9.97 10.1294 10.18L8.52941 15.31C8.41941 15.65 8.74941 15.98 9.08941 15.87L14.1894 14.27C14.3994 14.21 14.5694 14.04 14.6294 13.83Z" fill="#E21221"/>
</svg>
