<svg width="25" height="24" viewBox="0 0 25 24" fill="none" xmlns="http://www.w3.org/2000/svg">
<path d="M11.8297 7.29052V3.2815C11.8297 2.85523 12.1697 2.5 12.5997 2.5C12.9847 2.5 13.3109 2.79849 13.3626 3.17658L13.3697 3.2815V7.29052L18.1496 7.29083C20.5296 7.29083 22.485 9.23978 22.5947 11.6704L22.5996 11.8861V16.9254C22.5996 19.373 20.7123 21.3822 18.3676 21.495L18.1596 21.5H7.03961C4.65961 21.5 2.7137 19.5608 2.60445 17.1213L2.59961 16.9047L2.59961 11.8758C2.59961 9.4281 4.47752 7.40921 6.8216 7.29585L7.02961 7.29083H11.8296V13.6932L10.2296 12.041C9.92961 11.7312 9.43961 11.7312 9.13961 12.041C8.98961 12.1959 8.91961 12.4024 8.91961 12.6089C8.91961 12.7659 8.96441 12.9295 9.05913 13.0679L9.13961 13.1666L12.0496 16.1819C12.1896 16.3368 12.3896 16.4194 12.5996 16.4194C12.7663 16.4194 12.9329 16.362 13.0649 16.2533L13.1396 16.1819L16.0496 13.1666C16.3496 12.8568 16.3496 12.3508 16.0496 12.041C15.7769 11.7594 15.3471 11.7338 15.0459 11.9642L14.9596 12.041L13.3696 13.6932V7.29083L11.8297 7.29052Z" fill="#E21221"/>
</svg>
